# xmcd
#
# Track frame offsets:
#	150
#	7688
#	24037
#	42901
#	60591
#	86017
#	104634
#	119035
#	132855
#	148447
#	177135
#	188781
#	204218
#	222010
#	240014
#	254893
#	270664
#
# Disc length: 3868 seconds
#
# Revision: 1
# Processed by: cddbd v1.5.2PL0 Copyright (c) Steve Scherf et al.
# Submitted via: EZCDAudioConverter 2.1.7.1
#
DISCID=ea0f1a11
DTITLE=V/A - Personal Space: Electronic Soul 1974-1984
DYEAR=2012
DGENRE=
TTITLE0=Jeff Phelps - Excerpts From Autumn
TTITLE1=Guitar Red - Disco From A Space Show
TTITLE2=Jerry (J. G.) Green - Finally Found The Love I Need
TTITLE3=Key and Cleary - A Man
TTITLE4=Spontaneous Overthrow - All About Money
TTITLE5=Cotillion - If You Give A Dance
TTITLE6=USAries - Are You Ready To Come? (With Me) (Part 1)
TTITLE7=Makers - Don't Challenge Me
TTITLE8=T. Dyson And Company - It's All Over
TTITLE9=Starship Commander Woo Woo - Master Ship [Excerpt]
TTITLE10=Johnnie Walker - Love Vibrator
TTITLE11=Jeff Phelps - Super Lady
TTITLE12=Deborah Washington and The Astros - Shortest Lady
TTITLE13=Steve Elliott - One More Time
TTITLE14=USAries - Are You Ready To Come? (With Me) (Part 2)
TTITLE15=The New Year - My Bleeding Wound
TTITLE16=Otis G. Johnson - Time To Go Home
EXTD=
EXTT0=
EXTT1=
EXTT2=
EXTT3=
EXTT4=
EXTT5=
EXTT6=
EXTT7=
EXTT8=
EXTT9=
EXTT10=
EXTT11=
EXTT12=
EXTT13=
EXTT14=
EXTT15=
EXTT16=
PLAYORDER=
